<mxfile host="app.diagrams.net" modified="2024-05-11T17:08:49.561Z" agent="Mozilla/5.0 (Macintosh; Intel Mac OS X 10_15_7) AppleWebKit/537.36 (KHTML, like Gecko) Chrome/124.0.0.0 Safari/537.36" etag="aYaMMpv8M9EIkGC8jRiv" version="24.4.0" type="github">
  <diagram name="第 1 页" id="ewijwr4XluIojpZv05pp">
    <mxGraphModel dx="1434" dy="786" grid="1" gridSize="10" guides="1" tooltips="1" connect="1" arrows="1" fold="1" page="1" pageScale="1" pageWidth="827" pageHeight="1169" math="0" shadow="0">
      <root>
        <mxCell id="0" />
        <mxCell id="1" parent="0" />
        <mxCell id="wLcMzcO36znTxegeTcKf-17" value="&lt;p style=&quot;margin:0px;margin-top:4px;text-align:center;&quot;&gt;&lt;i&gt;&amp;lt;&amp;lt;Interface&amp;gt;&amp;gt;&lt;/i&gt;&lt;br&gt;&lt;b&gt;Filter&lt;/b&gt;&lt;/p&gt;&lt;hr size=&quot;1&quot; style=&quot;border-style:solid;&quot;&gt;&lt;p style=&quot;margin:0px;margin-left:4px;&quot;&gt;+ get_short_name(self)&lt;br&gt;+ filter_parameter_regressor(self, features)&lt;/p&gt;&lt;p style=&quot;margin:0px;margin-left:4px;&quot;&gt;+ process(self, img, param, defog, IcA)&lt;/p&gt;" style="verticalAlign=top;align=left;overflow=fill;html=1;whiteSpace=wrap;" vertex="1" parent="1">
          <mxGeometry x="320" y="330" width="280" height="100" as="geometry" />
        </mxCell>
        <mxCell id="wLcMzcO36znTxegeTcKf-18" value="&lt;p style=&quot;margin:0px;margin-top:4px;text-align:center;&quot;&gt;DefogFilter&lt;/p&gt;&lt;hr size=&quot;1&quot; style=&quot;border-style:solid;&quot;&gt;&lt;p style=&quot;margin:0px;margin-left:4px;&quot;&gt;+ get_short_name(self)&lt;br&gt;+ filter_parameter_regressor(self, features)&lt;/p&gt;&lt;p style=&quot;margin:0px;margin-left:4px;&quot;&gt;+ process(self, img, param, defog, IcA)&lt;/p&gt;" style="verticalAlign=top;align=left;overflow=fill;html=1;whiteSpace=wrap;" vertex="1" parent="1">
          <mxGeometry x="30" y="535" width="280" height="85" as="geometry" />
        </mxCell>
        <mxCell id="wLcMzcO36znTxegeTcKf-19" value="&lt;p style=&quot;margin:0px;margin-top:4px;text-align:center;&quot;&gt;ContrastFilter&lt;/p&gt;&lt;hr size=&quot;1&quot; style=&quot;border-style:solid;&quot;&gt;&lt;p style=&quot;margin:0px;margin-left:4px;&quot;&gt;+ get_short_name(self)&lt;br&gt;+ filter_parameter_regressor(self, features)&lt;/p&gt;&lt;p style=&quot;margin:0px;margin-left:4px;&quot;&gt;+ process(self, img, param, defog, IcA)&lt;/p&gt;" style="verticalAlign=top;align=left;overflow=fill;html=1;whiteSpace=wrap;" vertex="1" parent="1">
          <mxGeometry x="320" y="535" width="280" height="85" as="geometry" />
        </mxCell>
        <mxCell id="wLcMzcO36znTxegeTcKf-20" value="&lt;p style=&quot;margin:0px;margin-top:4px;text-align:center;&quot;&gt;UsmFilter&lt;/p&gt;&lt;hr size=&quot;1&quot; style=&quot;border-style:solid;&quot;&gt;&lt;p style=&quot;margin:0px;margin-left:4px;&quot;&gt;+ get_short_name(self)&lt;br&gt;+ filter_parameter_regressor(self, features)&lt;/p&gt;&lt;p style=&quot;margin:0px;margin-left:4px;&quot;&gt;+ process(self, img, param, defog, IcA)&lt;/p&gt;" style="verticalAlign=top;align=left;overflow=fill;html=1;whiteSpace=wrap;" vertex="1" parent="1">
          <mxGeometry x="610" y="535" width="280" height="85" as="geometry" />
        </mxCell>
        <mxCell id="wLcMzcO36znTxegeTcKf-22" value="&lt;p style=&quot;margin:0px;margin-top:4px;text-align:center;&quot;&gt;ImprovedWhiteBalanceFilter&lt;/p&gt;&lt;hr size=&quot;1&quot; style=&quot;border-style:solid;&quot;&gt;&lt;p style=&quot;margin:0px;margin-left:4px;&quot;&gt;+ get_short_name(self)&lt;br&gt;+ filter_parameter_regressor(self, features)&lt;/p&gt;&lt;p style=&quot;margin:0px;margin-left:4px;&quot;&gt;+ process(self, img, param, defog, IcA)&lt;/p&gt;" style="verticalAlign=top;align=left;overflow=fill;html=1;whiteSpace=wrap;" vertex="1" parent="1">
          <mxGeometry x="30" y="150" width="280" height="85" as="geometry" />
        </mxCell>
        <mxCell id="wLcMzcO36znTxegeTcKf-23" value="&lt;p style=&quot;margin:0px;margin-top:4px;text-align:center;&quot;&gt;GammaFilter&lt;/p&gt;&lt;hr size=&quot;1&quot; style=&quot;border-style:solid;&quot;&gt;&lt;p style=&quot;margin:0px;margin-left:4px;&quot;&gt;+ get_short_name(self)&lt;br&gt;+ filter_parameter_regressor(self, features)&lt;/p&gt;&lt;p style=&quot;margin:0px;margin-left:4px;&quot;&gt;+ process(self, img, param, defog, IcA)&lt;/p&gt;" style="verticalAlign=top;align=left;overflow=fill;html=1;whiteSpace=wrap;" vertex="1" parent="1">
          <mxGeometry x="320" y="150" width="280" height="85" as="geometry" />
        </mxCell>
        <mxCell id="wLcMzcO36znTxegeTcKf-24" value="&lt;p style=&quot;margin:0px;margin-top:4px;text-align:center;&quot;&gt;ToneFilter&lt;/p&gt;&lt;hr size=&quot;1&quot; style=&quot;border-style:solid;&quot;&gt;&lt;p style=&quot;margin:0px;margin-left:4px;&quot;&gt;+ get_short_name(self)&lt;br&gt;+ filter_parameter_regressor(self, features)&lt;/p&gt;&lt;p style=&quot;margin:0px;margin-left:4px;&quot;&gt;+ process(self, img, param, defog, IcA)&lt;/p&gt;" style="verticalAlign=top;align=left;overflow=fill;html=1;whiteSpace=wrap;" vertex="1" parent="1">
          <mxGeometry x="610" y="150" width="280" height="85" as="geometry" />
        </mxCell>
        <mxCell id="wLcMzcO36znTxegeTcKf-25" value="" style="endArrow=block;dashed=1;endFill=0;endSize=12;html=1;rounded=0;entryX=0.5;entryY=1;entryDx=0;entryDy=0;exitX=0.5;exitY=0;exitDx=0;exitDy=0;" edge="1" parent="1" source="wLcMzcO36znTxegeTcKf-17" target="wLcMzcO36znTxegeTcKf-24">
          <mxGeometry width="160" relative="1" as="geometry">
            <mxPoint x="600" y="380" as="sourcePoint" />
            <mxPoint x="760" y="380" as="targetPoint" />
          </mxGeometry>
        </mxCell>
        <mxCell id="wLcMzcO36znTxegeTcKf-26" value="" style="endArrow=block;dashed=1;endFill=0;endSize=12;html=1;rounded=0;entryX=0.5;entryY=1;entryDx=0;entryDy=0;exitX=0.5;exitY=0;exitDx=0;exitDy=0;" edge="1" parent="1" source="wLcMzcO36znTxegeTcKf-17" target="wLcMzcO36znTxegeTcKf-23">
          <mxGeometry width="160" relative="1" as="geometry">
            <mxPoint x="460" y="320" as="sourcePoint" />
            <mxPoint x="760" y="245" as="targetPoint" />
          </mxGeometry>
        </mxCell>
        <mxCell id="wLcMzcO36znTxegeTcKf-27" value="" style="endArrow=block;dashed=1;endFill=0;endSize=12;html=1;rounded=0;entryX=0.5;entryY=1;entryDx=0;entryDy=0;exitX=0.5;exitY=0;exitDx=0;exitDy=0;" edge="1" parent="1" source="wLcMzcO36znTxegeTcKf-17" target="wLcMzcO36znTxegeTcKf-22">
          <mxGeometry width="160" relative="1" as="geometry">
            <mxPoint x="480" y="350" as="sourcePoint" />
            <mxPoint x="770" y="255" as="targetPoint" />
          </mxGeometry>
        </mxCell>
        <mxCell id="wLcMzcO36znTxegeTcKf-28" value="" style="endArrow=block;dashed=1;endFill=0;endSize=12;html=1;rounded=0;entryX=0.5;entryY=0;entryDx=0;entryDy=0;exitX=0.5;exitY=1;exitDx=0;exitDy=0;" edge="1" parent="1" source="wLcMzcO36znTxegeTcKf-17" target="wLcMzcO36znTxegeTcKf-19">
          <mxGeometry width="160" relative="1" as="geometry">
            <mxPoint x="490" y="360" as="sourcePoint" />
            <mxPoint x="780" y="265" as="targetPoint" />
          </mxGeometry>
        </mxCell>
        <mxCell id="wLcMzcO36znTxegeTcKf-29" value="" style="endArrow=block;dashed=1;endFill=0;endSize=12;html=1;rounded=0;entryX=0.5;entryY=0;entryDx=0;entryDy=0;exitX=0.5;exitY=1;exitDx=0;exitDy=0;" edge="1" parent="1" source="wLcMzcO36znTxegeTcKf-17" target="wLcMzcO36znTxegeTcKf-20">
          <mxGeometry width="160" relative="1" as="geometry">
            <mxPoint x="500" y="370" as="sourcePoint" />
            <mxPoint x="790" y="275" as="targetPoint" />
          </mxGeometry>
        </mxCell>
        <mxCell id="wLcMzcO36znTxegeTcKf-30" value="" style="endArrow=block;dashed=1;endFill=0;endSize=12;html=1;rounded=0;entryX=0.5;entryY=0;entryDx=0;entryDy=0;exitX=0.5;exitY=1;exitDx=0;exitDy=0;" edge="1" parent="1" source="wLcMzcO36znTxegeTcKf-17" target="wLcMzcO36znTxegeTcKf-18">
          <mxGeometry width="160" relative="1" as="geometry">
            <mxPoint x="510" y="380" as="sourcePoint" />
            <mxPoint x="800" y="285" as="targetPoint" />
          </mxGeometry>
        </mxCell>
        <mxCell id="wLcMzcO36znTxegeTcKf-31" value="&lt;p style=&quot;margin:0px;margin-top:4px;text-align:center;&quot;&gt;NoiseFilter&lt;/p&gt;&lt;hr size=&quot;1&quot; style=&quot;border-style:solid;&quot;&gt;&lt;p style=&quot;margin:0px;margin-left:4px;&quot;&gt;+ get_short_name(self)&lt;br&gt;+ filter_parameter_regressor(self, features)&lt;/p&gt;&lt;p style=&quot;margin:0px;margin-left:4px;&quot;&gt;+ process(self, img, param, defog, IcA)&lt;/p&gt;" style="verticalAlign=top;align=left;overflow=fill;html=1;whiteSpace=wrap;" vertex="1" parent="1">
          <mxGeometry x="900" y="150" width="280" height="85" as="geometry" />
        </mxCell>
        <mxCell id="wLcMzcO36znTxegeTcKf-32" value="" style="endArrow=block;dashed=1;endFill=0;endSize=12;html=1;rounded=0;entryX=0.5;entryY=1;entryDx=0;entryDy=0;" edge="1" parent="1" target="wLcMzcO36znTxegeTcKf-31">
          <mxGeometry width="160" relative="1" as="geometry">
            <mxPoint x="460" y="330" as="sourcePoint" />
            <mxPoint x="760" y="245" as="targetPoint" />
          </mxGeometry>
        </mxCell>
      </root>
    </mxGraphModel>
  </diagram>
</mxfile>
